<svg width="124" height="24" viewBox="0 0 124 24" fill="none" xmlns="http://www.w3.org/2000/svg">
<path d="M5.05831 18.0215V16.8082H5.99926C6.44497 16.8082 6.83291 16.7256 7.16307 16.5605C7.49323 16.3955 7.65831 15.958 7.65831 15.2482V11.3358L3.07735 2.8672C2.82974 2.38847 2.59037 2.05006 2.35926 1.85196C2.12815 1.65387 1.78148 1.55482 1.31926 1.55482H0.997355V0.341484H8.72307V1.55482H8.12878C7.65005 1.55482 7.30339 1.64561 7.08878 1.8272C6.89069 2.00879 6.79164 2.24815 6.79164 2.54529C6.79164 2.7599 6.83291 2.99101 6.91545 3.23863C6.99799 3.46974 7.08878 3.68434 7.18783 3.88244L9.02021 7.39863C9.28434 7.91037 9.5072 8.3891 9.68878 8.83482C9.87037 9.28053 10.0272 9.69323 10.1593 10.0729C10.3243 9.67672 10.5307 9.22275 10.7783 8.71101C11.0259 8.19926 11.2901 7.67101 11.5707 7.12625L13.0564 4.20434C13.2215 3.87418 13.3288 3.58529 13.3783 3.33767C13.4443 3.09006 13.4774 2.88371 13.4774 2.71863C13.4774 1.94275 12.9491 1.55482 11.8926 1.55482H11.2735V0.341484H17.5878V1.55482H17.1916C16.7955 1.55482 16.4653 1.68688 16.2012 1.95101C15.9535 2.21514 15.6316 2.72688 15.2355 3.48625L11.0507 11.3605V15.1739C11.0507 15.9167 11.2075 16.3789 11.5212 16.5605C11.8513 16.7256 12.2393 16.8082 12.685 16.8082H13.6507V18.0215H5.05831ZM23.2009 18.2691C21.3024 18.2691 19.8002 17.6996 18.6942 16.5605C17.6047 15.405 17.0599 13.6634 17.0599 11.3358C17.0599 9.02466 17.5799 7.29958 18.6199 6.16053C19.6764 5.02148 21.2282 4.45196 23.2751 4.45196C25.1901 4.45196 26.6923 5.02148 27.7818 6.16053C28.8713 7.29958 29.4161 9.02466 29.4161 11.3358C29.4161 13.6634 28.8878 15.405 27.8313 16.5605C26.7913 17.6996 25.2478 18.2691 23.2009 18.2691ZM23.2504 16.8082C24.3069 16.8082 25.0497 16.3459 25.4789 15.4215C25.9082 14.497 26.1228 13.1351 26.1228 11.3358C26.1228 9.53641 25.8999 8.19101 25.4542 7.29958C25.025 6.39164 24.2821 5.93767 23.2256 5.93767C22.1691 5.93767 21.4262 6.39164 20.997 7.29958C20.5678 8.19101 20.3532 9.53641 20.3532 11.3358C20.3532 13.1351 20.5678 14.497 20.997 15.4215C21.4428 16.3459 22.1939 16.8082 23.2504 16.8082ZM37.1822 18.2691C35.8781 18.2691 34.8794 17.8812 34.186 17.1053C33.4927 16.3129 33.146 15.0748 33.146 13.391V7.69577C33.146 6.96942 32.981 6.49894 32.6508 6.28434C32.3372 6.06974 31.8914 5.96244 31.3137 5.96244H31.2641V4.7491H36.3651V12.8958C36.3651 13.9688 36.5137 14.8189 36.8108 15.4462C37.1079 16.057 37.6775 16.3624 38.5194 16.3624C39.4108 16.3624 40.0629 16.0158 40.4756 15.3224C40.8883 14.6126 41.0946 13.6716 41.0946 12.4996V7.62148C41.0946 6.87863 40.9048 6.4164 40.5251 6.23482C40.1619 6.05323 39.7245 5.96244 39.2127 5.96244H39.1384V4.7491H44.3137V15.2234C44.3137 15.9332 44.487 16.3789 44.8337 16.5605C45.1803 16.7256 45.6095 16.8082 46.1213 16.8082H46.2699V18.0215H41.7137L41.2432 16.1643H41.1194C40.6241 17.0558 40.0381 17.6335 39.3613 17.8977C38.701 18.1453 37.9746 18.2691 37.1822 18.2691ZM47.49 18.0215V16.8082H47.5642C48.1255 16.8082 48.5877 16.7091 48.9509 16.511C49.3306 16.2964 49.5204 15.8012 49.5204 15.0253V7.64625C49.5204 6.9199 49.3388 6.45767 48.9757 6.25958C48.629 6.06148 48.1833 5.96244 47.6385 5.96244H47.5642V4.7491H52.1204L52.5909 6.87863H52.7147C53.0449 6.13577 53.4411 5.54974 53.9033 5.12053C54.382 4.69133 55.1414 4.47672 56.1814 4.47672C57.1223 4.47672 57.8157 4.6418 58.2614 4.97196C58.7236 5.30212 58.9547 5.78085 58.9547 6.40815C58.9547 7.06847 58.7154 7.59672 58.2366 7.99291C57.7579 8.3726 57.0563 8.56244 56.1319 8.56244C56.1319 7.88561 56.0411 7.38212 55.8595 7.05196C55.6779 6.7218 55.356 6.55672 54.8938 6.55672C54.4481 6.55672 54.0849 6.7218 53.8042 7.05196C53.5236 7.36561 53.3008 7.77006 53.1357 8.26529C52.9871 8.74402 52.8798 9.23926 52.8138 9.75101C52.7642 10.2462 52.7395 10.6672 52.7395 11.0139V15.1491C52.7395 15.8755 52.9128 16.3377 53.2595 16.5358C53.6227 16.7174 54.0601 16.8082 54.5719 16.8082H55.3395V18.0215H47.49ZM66.5491 18.0215V16.8082H67.3167C67.7459 16.8082 68.1091 16.7174 68.4062 16.5358C68.7199 16.3377 68.8767 15.8755 68.8767 15.1491V3.21386C68.8767 2.48752 68.7199 2.03355 68.4062 1.85196C68.1091 1.65387 67.7459 1.55482 67.3167 1.55482H66.5491V0.341484H74.5719V1.55482H73.8043C73.3916 1.55482 73.0284 1.64561 72.7148 1.8272C72.4177 2.00879 72.2691 2.43799 72.2691 3.11482V16.6101H76.9738C77.6011 16.6101 78.0716 16.4037 78.3853 15.991C78.7154 15.5783 78.9465 15.0583 79.0786 14.431L79.4005 12.5739H80.7624L80.5891 18.0215H66.5491ZM89.023 18.2691C87.1246 18.2691 85.6224 17.6996 84.5164 16.5605C83.4268 15.405 82.8821 13.6634 82.8821 11.3358C82.8821 9.02466 83.4021 7.29958 84.4421 6.16053C85.4986 5.02148 87.0503 4.45196 89.0973 4.45196C91.0122 4.45196 92.5145 5.02148 93.604 6.16053C94.6935 7.29958 95.2383 9.02466 95.2383 11.3358C95.2383 13.6634 94.71 15.405 93.6535 16.5605C92.6135 17.6996 91.07 18.2691 89.023 18.2691ZM89.0726 16.8082C90.1291 16.8082 90.8719 16.3459 91.3011 15.4215C91.7303 14.497 91.9449 13.1351 91.9449 11.3358C91.9449 9.53641 91.7221 8.19101 91.2764 7.29958C90.8472 6.39164 90.1043 5.93767 89.0478 5.93767C87.9913 5.93767 87.2484 6.39164 86.8192 7.29958C86.39 8.19101 86.1754 9.53641 86.1754 11.3358C86.1754 13.1351 86.39 14.497 86.8192 15.4215C87.2649 16.3459 88.016 16.8082 89.0726 16.8082ZM102.262 23.9643C100.396 23.9643 99.0012 23.6589 98.0768 23.0482C97.1689 22.4539 96.7149 21.5872 96.7149 20.4482C96.7149 19.5402 97.012 18.8386 97.6063 18.3434C98.2006 17.8647 98.9847 17.5758 99.9587 17.4767C99.5625 17.3116 99.1911 17.0558 98.8444 16.7091C98.4977 16.3624 98.3244 15.9002 98.3244 15.3224C98.3244 14.8107 98.4977 14.3567 98.8444 13.9605C99.2076 13.5643 99.6946 13.1929 100.305 12.8462C99.579 12.5656 98.993 12.0951 98.5473 11.4348C98.1016 10.7745 97.8787 9.97387 97.8787 9.03291C97.8787 7.59672 98.2831 6.47418 99.092 5.66529C99.9174 4.8564 101.172 4.45196 102.856 4.45196C103.45 4.45196 104.003 4.5345 104.515 4.69958C105.027 4.84815 105.448 5.02974 105.778 5.24434C106.124 4.84815 106.496 4.52625 106.892 4.27863C107.305 4.0145 107.767 3.88244 108.279 3.88244C108.84 3.88244 109.253 4.0145 109.517 4.27863C109.797 4.54275 109.938 4.86466 109.938 5.24434C109.938 5.60752 109.822 5.92942 109.591 6.21006C109.36 6.47418 108.947 6.60625 108.353 6.60625C108.353 6.32561 108.27 6.0945 108.105 5.91291C107.94 5.73133 107.726 5.64053 107.462 5.64053C107.115 5.64053 106.809 5.73133 106.545 5.91291C106.859 6.27609 107.123 6.7218 107.338 7.25006C107.552 7.77831 107.66 8.36434 107.66 9.00815C107.66 10.2462 107.272 11.278 106.496 12.1034C105.72 12.9123 104.507 13.3167 102.856 13.3167C102.674 13.3167 102.435 13.3085 102.138 13.292C101.857 13.2589 101.634 13.2342 101.469 13.2177C101.205 13.3497 100.974 13.5313 100.776 13.7624C100.578 13.9935 100.479 14.2742 100.479 14.6043C100.479 15.1656 100.916 15.4462 101.791 15.4462H104.713C106.298 15.4462 107.445 15.7847 108.155 16.4615C108.865 17.1383 109.22 18.0462 109.22 19.1853C109.22 20.671 108.65 21.8348 107.511 22.6767C106.372 23.5351 104.622 23.9643 102.262 23.9643ZM102.782 11.9548C103.508 11.9548 104.003 11.6989 104.267 11.1872C104.531 10.6755 104.663 9.94085 104.663 8.98339C104.663 7.99291 104.523 7.22529 104.243 6.68053C103.978 6.11926 103.483 5.83863 102.757 5.83863C102.063 5.83863 101.576 6.12752 101.296 6.70529C101.015 7.26656 100.875 8.03418 100.875 9.00815C100.875 9.9491 101.015 10.6755 101.296 11.1872C101.593 11.6989 102.088 11.9548 102.782 11.9548ZM102.311 22.5777C103.879 22.5777 104.985 22.3383 105.629 21.8596C106.273 21.3974 106.595 20.7453 106.595 19.9034C106.595 19.2926 106.405 18.8716 106.025 18.6405C105.662 18.4259 105.117 18.3186 104.391 18.3186H101.692C101.312 18.3186 100.933 18.3682 100.553 18.4672C100.19 18.5662 99.8844 18.7643 99.6368 19.0615C99.4057 19.3586 99.2901 19.7961 99.2901 20.3739C99.2901 21.0672 99.5212 21.6037 99.9835 21.9834C100.462 22.3796 101.238 22.5777 102.311 22.5777ZM117.509 18.2691C115.61 18.2691 114.108 17.6996 113.002 16.5605C111.913 15.405 111.368 13.6634 111.368 11.3358C111.368 9.02466 111.888 7.29958 112.928 6.16053C113.984 5.02148 115.536 4.45196 117.583 4.45196C119.498 4.45196 121 5.02148 122.09 6.16053C123.179 7.29958 123.724 9.02466 123.724 11.3358C123.724 13.6634 123.196 15.405 122.139 16.5605C121.099 17.6996 119.556 18.2691 117.509 18.2691ZM117.558 16.8082C118.615 16.8082 119.358 16.3459 119.787 15.4215C120.216 14.497 120.431 13.1351 120.431 11.3358C120.431 9.53641 120.208 8.19101 119.762 7.29958C119.333 6.39164 118.59 5.93767 117.534 5.93767C116.477 5.93767 115.734 6.39164 115.305 7.29958C114.876 8.19101 114.661 9.53641 114.661 11.3358C114.661 13.1351 114.876 14.497 115.305 15.4215C115.751 16.3459 116.502 16.8082 117.558 16.8082Z" fill="#333333"/>
</svg>
